<svg width="84" height="19" viewBox="0 0 84 19" fill="none" xmlns="http://www.w3.org/2000/svg">
<path d="M0.751953 14.1406L2.34375 14.0137V1.77734L0.751953 1.65039V0.78125H14.3555V1.65039L12.7637 1.77734V14.0137L14.3555 14.1406V15H10.0098V14.1406L11.6016 14.0137V1.77734H3.50586V14.0137L5.09766 14.1406V15H0.751953V14.1406ZM16.2012 9.56055C16.2012 8.00456 16.6276 6.72852 17.4805 5.73242C18.3333 4.73633 19.4629 4.23828 20.8691 4.23828C22.2819 4.23828 23.4147 4.73633 24.2676 5.73242C25.1204 6.72852 25.5469 8.00456 25.5469 9.56055V9.88281C25.5469 11.4453 25.1204 12.7246 24.2676 13.7207C23.4212 14.7103 22.2949 15.2051 20.8887 15.2051C19.4694 15.2051 18.3333 14.7103 17.4805 13.7207C16.6276 12.7246 16.2012 11.4453 16.2012 9.88281V9.56055ZM17.373 9.88281C17.373 11.1068 17.6823 12.1354 18.3008 12.9688C18.9193 13.8021 19.7819 14.2188 20.8887 14.2188C21.9759 14.2188 22.8288 13.8021 23.4473 12.9688C24.0658 12.1354 24.375 11.1068 24.375 9.88281V9.56055C24.375 8.35612 24.0625 7.33398 23.4375 6.49414C22.819 5.6543 21.9629 5.23438 20.8691 5.23438C19.7754 5.23438 18.9193 5.6543 18.3008 6.49414C17.6823 7.33398 17.373 8.35612 17.373 9.56055V9.88281ZM34.7266 13.3594H34.7852L38.9551 4.43359H40.4004H41.9922V5.30273L40.4004 5.42969V14.0137L41.9922 14.1406V15H37.6367V14.1406L39.2285 14.0137V6.49414L39.1699 6.47461L35.1758 15H34.3457L30.2637 6.25977L30.2051 6.26953V14.0137L31.7969 14.1406V15H27.4512V14.1406L29.043 14.0137V5.42969L27.4512 5.30273V4.43359H29.043H30.5664L34.7266 13.3594ZM44.0723 9.56055C44.0723 8.00456 44.4987 6.72852 45.3516 5.73242C46.2044 4.73633 47.334 4.23828 48.7402 4.23828C50.153 4.23828 51.2858 4.73633 52.1387 5.73242C52.9915 6.72852 53.418 8.00456 53.418 9.56055V9.88281C53.418 11.4453 52.9915 12.7246 52.1387 13.7207C51.2923 14.7103 50.166 15.2051 48.7598 15.2051C47.3405 15.2051 46.2044 14.7103 45.3516 13.7207C44.4987 12.7246 44.0723 11.4453 44.0723 9.88281V9.56055ZM45.2441 9.88281C45.2441 11.1068 45.5534 12.1354 46.1719 12.9688C46.7904 13.8021 47.653 14.2188 48.7598 14.2188C49.847 14.2188 50.6999 13.8021 51.3184 12.9688C51.9368 12.1354 52.2461 11.1068 52.2461 9.88281V9.56055C52.2461 8.35612 51.9336 7.33398 51.3086 6.49414C50.6901 5.6543 49.834 5.23438 48.7402 5.23438C47.6465 5.23438 46.7904 5.6543 46.1719 6.49414C45.5534 7.33398 45.2441 8.35612 45.2441 9.56055V9.88281ZM71.3184 4.43359V5.30273L69.7266 5.42969V14.0039H71.3672L71.2793 18.1348H70.2051V15H55.2734V14.1406L56.8652 14.0137V5.42969L55.2734 5.30273V4.43359H56.8652H58.0273H59.6191V5.30273L58.0273 5.42969V14.0137H62.7344V4.43359H63.9062V14.0137H68.5645V5.42969L66.9727 5.30273V4.43359H68.5645H69.7266H71.3184ZM76.2207 4.43359V8.27148H79.248C80.459 8.27148 81.4062 8.58398 82.0898 9.20898C82.7734 9.82747 83.1152 10.6315 83.1152 11.6211C83.1152 12.6172 82.7734 13.431 82.0898 14.0625C81.4062 14.6875 80.459 15 79.248 15H73.4668V14.1406L75.0586 14.0137V5.42969L73.4668 5.30273V4.43359H75.0586H76.2207ZM76.2207 9.26758V14.0137H79.248C80.153 14.0137 80.8268 13.7891 81.2695 13.3398C81.7188 12.8841 81.9434 12.3177 81.9434 11.6406C81.9434 10.9896 81.7188 10.4329 81.2695 9.9707C80.8203 9.50195 80.1465 9.26758 79.248 9.26758H76.2207ZM77.8125 4.43359V5.30273L76.2207 5.42969V4.43359H77.8125Z" fill="#5222D0"/>
</svg>
