<svg width="94" height="19" viewBox="0 0 94 19" fill="none" xmlns="http://www.w3.org/2000/svg">
<path d="M13.5742 18.4473H12.4902V15H1.69922V18.4473H0.664062L0.537109 14.0137H1.49414C2.02799 13.4538 2.55859 12.5293 3.08594 11.2402C3.61328 9.95117 3.93229 8.17057 4.04297 5.89844L4.24805 1.77734L2.70508 1.65039V0.78125H13.7305V1.65039L12.1387 1.77734V14.0137H13.6621L13.5742 18.4473ZM5.21484 5.89844C5.11719 7.75391 4.84701 9.38151 4.4043 10.7812C3.9681 12.1745 3.44727 13.252 2.8418 14.0137H10.9668V1.77734H5.41992L5.21484 5.89844ZM16.0254 9.56055C16.0254 8.00456 16.4518 6.72852 17.3047 5.73242C18.1576 4.73633 19.2871 4.23828 20.6934 4.23828C22.1061 4.23828 23.2389 4.73633 24.0918 5.73242C24.9447 6.72852 25.3711 8.00456 25.3711 9.56055V9.88281C25.3711 11.4453 24.9447 12.7246 24.0918 13.7207C23.2454 14.7103 22.1191 15.2051 20.7129 15.2051C19.2936 15.2051 18.1576 14.7103 17.3047 13.7207C16.4518 12.7246 16.0254 11.4453 16.0254 9.88281V9.56055ZM17.1973 9.88281C17.1973 11.1068 17.5065 12.1354 18.125 12.9688C18.7435 13.8021 19.6061 14.2188 20.7129 14.2188C21.8001 14.2188 22.653 13.8021 23.2715 12.9688C23.89 12.1354 24.1992 11.1068 24.1992 9.88281V9.56055C24.1992 8.35612 23.8867 7.33398 23.2617 6.49414C22.6432 5.6543 21.7871 5.23438 20.6934 5.23438C19.5996 5.23438 18.7435 5.6543 18.125 6.49414C17.5065 7.33398 17.1973 8.35612 17.1973 9.56055V9.88281ZM31.7871 14.2188C32.5618 14.2188 33.2454 13.9974 33.8379 13.5547C34.4303 13.112 34.7266 12.4967 34.7266 11.709H35.7617L35.7812 11.7676C35.8138 12.7441 35.4232 13.5612 34.6094 14.2188C33.8021 14.8763 32.8613 15.2051 31.7871 15.2051C30.3548 15.2051 29.2448 14.7135 28.457 13.7305C27.6693 12.7409 27.2754 11.4714 27.2754 9.92188V9.51172C27.2754 7.97526 27.6693 6.71224 28.457 5.72266C29.2448 4.73307 30.3516 4.23828 31.7773 4.23828C32.5911 4.23828 33.3366 4.39128 34.0137 4.69727C34.6908 5.00326 35.2409 5.41992 35.6641 5.94727L35.7129 8.25195H34.7168L34.5312 6.37695C34.2188 6.02539 33.8281 5.7487 33.3594 5.54688C32.8971 5.33854 32.3698 5.23438 31.7773 5.23438C30.6445 5.23438 29.8047 5.64128 29.2578 6.45508C28.7174 7.26237 28.4473 8.28125 28.4473 9.51172V9.92188C28.4473 11.1719 28.7174 12.2005 29.2578 13.0078C29.7982 13.8151 30.6413 14.2188 31.7871 14.2188ZM47.0801 4.43359V7.43164H46.0449L45.957 5.42969H42.9688V14.0137L44.5605 14.1406V15H40.2148V14.1406L41.8066 14.0137V5.42969H38.9551L38.877 7.43164H37.832V4.43359H47.0801ZM56.1328 15C56.0547 14.6419 55.9993 14.3327 55.9668 14.0723C55.9342 13.8118 55.918 13.5482 55.918 13.2812C55.5273 13.8346 55.0065 14.2936 54.3555 14.6582C53.7044 15.0228 52.972 15.2051 52.1582 15.2051C51.123 15.2051 50.3223 14.9382 49.7559 14.4043C49.1895 13.8704 48.9062 13.1478 48.9062 12.2363C48.9062 11.2598 49.3262 10.485 50.166 9.91211C51.0059 9.33919 52.1452 9.05273 53.584 9.05273H55.918V7.65625C55.918 6.90104 55.6738 6.30859 55.1855 5.87891C54.7038 5.44922 54.0267 5.23438 53.1543 5.23438C52.5684 5.23438 52.0312 5.31576 51.543 5.47852C51.0612 5.63477 50.6576 5.84961 50.332 6.12305L50.2344 7.53906H49.2676L49.2773 5.50781C49.7656 5.13021 50.3483 4.82422 51.0254 4.58984C51.709 4.35547 52.4349 4.23828 53.2031 4.23828C54.3685 4.23828 55.306 4.53451 56.0156 5.12695C56.7253 5.7194 57.0801 6.56901 57.0801 7.67578V12.8711C57.0801 13.0859 57.0833 13.2943 57.0898 13.4961C57.1029 13.6914 57.1257 13.8835 57.1582 14.0723L58.2129 14.1406V15H56.1328ZM52.2852 14.1699C53.1315 14.1699 53.877 13.9746 54.5215 13.584C55.166 13.1934 55.6315 12.6888 55.918 12.0703V9.95117H53.5645C52.5033 9.95117 51.6536 10.1725 51.0156 10.6152C50.3841 11.0514 50.0684 11.6048 50.0684 12.2754C50.0684 12.8418 50.2637 13.3008 50.6543 13.6523C51.0514 13.9974 51.5951 14.1699 52.2852 14.1699ZM65.3418 4.43359C66.6569 4.43359 67.679 4.67122 68.4082 5.14648C69.1374 5.61523 69.502 6.31836 69.502 7.25586C69.502 7.79622 69.3359 8.27148 69.0039 8.68164C68.6784 9.0918 68.2194 9.38802 67.627 9.57031C68.3171 9.70052 68.8704 10 69.2871 10.4688C69.7103 10.931 69.9219 11.4648 69.9219 12.0703C69.9219 13.0273 69.5703 13.7565 68.8672 14.2578C68.1706 14.7526 67.2201 15 66.0156 15H59.873V14.1406L61.4648 14.0137V5.42969L59.873 5.30273V4.43359H61.4648H65.3418ZM62.627 10.1367V14.0234H66.0156C66.888 14.0234 67.5618 13.8542 68.0371 13.5156C68.5124 13.1771 68.75 12.6888 68.75 12.0508C68.75 11.4648 68.5091 10.9993 68.0273 10.6543C67.5456 10.3092 66.875 10.1367 66.0156 10.1367H62.627ZM62.627 9.16016H65.4492C66.3932 9.16016 67.1094 9.00391 67.5977 8.69141C68.0859 8.3724 68.3301 7.90365 68.3301 7.28516C68.3301 6.65365 68.0794 6.18815 67.5781 5.88867C67.0768 5.58268 66.3314 5.42969 65.3418 5.42969H62.627V9.16016ZM72.0801 5.30273V4.43359H76.4355V5.30273L74.8438 5.42969V9.12109H76.4062L78.9941 5.83008C79.4303 5.27018 79.821 4.87305 80.166 4.63867C80.5176 4.4043 80.9017 4.28711 81.3184 4.28711C81.5267 4.28711 81.7155 4.31966 81.8848 4.38477C82.0605 4.44336 82.2396 4.52799 82.4219 4.63867L82.168 5.49805C82.0508 5.45898 81.9401 5.42643 81.8359 5.40039C81.7383 5.37435 81.6243 5.36133 81.4941 5.36133C81.2077 5.36133 80.9473 5.44271 80.7129 5.60547C80.4785 5.76823 80.2083 6.04167 79.9023 6.42578L77.4414 9.54102L81.416 14.0234L82.8027 14.1406V15H80.7422L76.4648 10.1562H74.8438V14.0137L76.4355 14.1406V15H72.0801V14.1406L73.6719 14.0137V5.42969L72.0801 5.30273ZM91.543 15C91.4648 14.6419 91.4095 14.3327 91.377 14.0723C91.3444 13.8118 91.3281 13.5482 91.3281 13.2812C90.9375 13.8346 90.4167 14.2936 89.7656 14.6582C89.1146 15.0228 88.3822 15.2051 87.5684 15.2051C86.5332 15.2051 85.7324 14.9382 85.166 14.4043C84.5996 13.8704 84.3164 13.1478 84.3164 12.2363C84.3164 11.2598 84.7363 10.485 85.5762 9.91211C86.416 9.33919 87.5553 9.05273 88.9941 9.05273H91.3281V7.65625C91.3281 6.90104 91.084 6.30859 90.5957 5.87891C90.1139 5.44922 89.4368 5.23438 88.5645 5.23438C87.9785 5.23438 87.4414 5.31576 86.9531 5.47852C86.4714 5.63477 86.0677 5.84961 85.7422 6.12305L85.6445 7.53906H84.6777L84.6875 5.50781C85.1758 5.13021 85.7585 4.82422 86.4355 4.58984C87.1191 4.35547 87.8451 4.23828 88.6133 4.23828C89.7786 4.23828 90.7161 4.53451 91.4258 5.12695C92.1354 5.7194 92.4902 6.56901 92.4902 7.67578V12.8711C92.4902 13.0859 92.4935 13.2943 92.5 13.4961C92.513 13.6914 92.5358 13.8835 92.5684 14.0723L93.623 14.1406V15H91.543ZM87.6953 14.1699C88.5417 14.1699 89.2871 13.9746 89.9316 13.584C90.5762 13.1934 91.0417 12.6888 91.3281 12.0703V9.95117H88.9746C87.9134 9.95117 87.0638 10.1725 86.4258 10.6152C85.7943 11.0514 85.4785 11.6048 85.4785 12.2754C85.4785 12.8418 85.6738 13.3008 86.0645 13.6523C86.4616 13.9974 87.0052 14.1699 87.6953 14.1699Z" fill="#5222D0"/>
</svg>
