<svg width="110" height="20" viewBox="0 0 110 20" fill="none" xmlns="http://www.w3.org/2000/svg">
<path d="M0.751953 14.1406L2.34375 14.0137V1.77734L0.751953 1.65039V0.78125H10.8984V3.7793H9.85352L9.76562 1.77734H3.50586V14.0137L5.09766 14.1406V15H0.751953V14.1406ZM10.7031 14.0137C11.263 13.3105 11.709 12.5749 12.041 11.8066C12.373 11.0319 12.5749 9.84701 12.6465 8.25195L12.7734 5.42969L11.2305 5.30273V4.43359H20.6543V5.30273L19.0625 5.42969V14.0137H20.1562L20.0684 18.1055H18.9941V15H11.0547V18.1055H10.0195L9.94141 14.0137H10.7031ZM13.8086 8.25195C13.75 9.63216 13.5645 10.7878 13.252 11.7188C12.9395 12.6497 12.5391 13.4147 12.0508 14.0137H17.8906V5.52734H13.9355L13.8086 8.25195ZM27.3828 15.2051C26.0547 15.2051 24.9544 14.7201 24.082 13.75C23.2096 12.7734 22.7734 11.5332 22.7734 10.0293V9.49219C22.7734 7.98177 23.2064 6.72852 24.0723 5.73242C24.9447 4.73633 25.9961 4.23828 27.2266 4.23828C28.5221 4.23828 29.541 4.64844 30.2832 5.46875C31.0254 6.28906 31.3965 7.38281 31.3965 8.75V9.74609H23.9355V10.0293C23.9355 11.2142 24.2513 12.2103 24.8828 13.0176C25.5208 13.8184 26.3542 14.2188 27.3828 14.2188C28.1055 14.2188 28.724 14.1178 29.2383 13.916C29.7526 13.7142 30.1921 13.4245 30.5566 13.0469L31.0547 13.8477C30.6576 14.2643 30.1562 14.5964 29.5508 14.8438C28.9453 15.0846 28.2227 15.2051 27.3828 15.2051ZM27.2266 5.23438C26.3672 5.23438 25.6413 5.56641 25.0488 6.23047C24.4629 6.88802 24.1211 7.71484 24.0234 8.71094L24.043 8.75977H30.2344V8.4668C30.2344 7.54883 29.9642 6.7806 29.4238 6.16211C28.8835 5.54362 28.151 5.23438 27.2266 5.23438ZM38.3496 5.30273V4.43359H42.7051V5.30273L41.1133 5.42969V9.12109H42.6758L45.2637 5.83008C45.6999 5.27018 46.0905 4.87305 46.4355 4.63867C46.7871 4.4043 47.1712 4.28711 47.5879 4.28711C47.7962 4.28711 47.985 4.31966 48.1543 4.38477C48.3301 4.44336 48.5091 4.52799 48.6914 4.63867L48.4375 5.49805C48.3203 5.45898 48.2096 5.42643 48.1055 5.40039C48.0078 5.37435 47.8939 5.36133 47.7637 5.36133C47.4772 5.36133 47.2168 5.44271 46.9824 5.60547C46.748 5.76823 46.4779 6.04167 46.1719 6.42578L43.7109 9.54102L47.6855 14.0234L49.0723 14.1406V15H47.0117L42.7344 10.1562H41.1133V14.0137L42.7051 14.1406V15H38.3496V14.1406L39.9414 14.0137V5.42969L38.3496 5.30273ZM60.6543 5.30273L59.5801 5.39062L55.3125 16.6895C55.0391 17.4056 54.6842 18.0143 54.248 18.5156C53.8118 19.0169 53.1738 19.2676 52.334 19.2676C52.1973 19.2676 52.0312 19.2513 51.8359 19.2188C51.6406 19.1927 51.4974 19.1634 51.4062 19.1309L51.543 18.1543C51.6211 18.1673 51.7448 18.1803 51.9141 18.1934C52.0898 18.2129 52.2135 18.2227 52.2852 18.2227C52.7995 18.2227 53.2064 18.0436 53.5059 17.6855C53.8053 17.3275 54.069 16.862 54.2969 16.2891L54.8438 14.873L51.0938 5.39062L50.0195 5.30273V4.43359H53.6523V5.30273L52.3926 5.40039L54.9707 12.1387L55.3418 13.4082H55.4004L58.291 5.40039L57.002 5.30273V4.43359H60.6543V5.30273ZM61.9824 14.1406L63.5742 14.0137V5.42969L61.9824 5.30273V4.43359H73.2031V5.30273L71.6113 5.42969V14.0137L73.2031 14.1406V15H68.8477V14.1406L70.4395 14.0137V5.43945H64.7363V14.0137L66.3281 14.1406V15H61.9824V14.1406ZM79.7266 4.43359V5.30273L78.1348 5.42969V13.0469L78.1934 13.0566L83.8379 4.43359H85.0098H86.6016V5.30273L85.0098 5.42969V14.0137L86.6016 14.1406V15H82.2461V14.1406L83.8379 14.0137V6.37695L83.7793 6.35742L78.1348 15H75.3809V14.1406L76.9727 14.0137V5.42969L75.3809 5.30273V4.43359H78.1348H79.7266ZM97.9004 4.43359V7.43164H96.8652L96.7773 5.42969H93.7891V14.0137L95.3809 14.1406V15H91.0352V14.1406L92.627 14.0137V5.42969H89.7754L89.6973 7.43164H88.6523V4.43359H97.9004ZM102.568 4.43359V8.27148H105.596C106.807 8.27148 107.754 8.58398 108.438 9.20898C109.121 9.82747 109.463 10.6315 109.463 11.6211C109.463 12.6172 109.121 13.431 108.438 14.0625C107.754 14.6875 106.807 15 105.596 15H99.8145V14.1406L101.406 14.0137V5.42969L99.8145 5.30273V4.43359H101.406H102.568ZM102.568 9.26758V14.0137H105.596C106.501 14.0137 107.174 13.7891 107.617 13.3398C108.066 12.8841 108.291 12.3177 108.291 11.6406C108.291 10.9896 108.066 10.4329 107.617 9.9707C107.168 9.50195 106.494 9.26758 105.596 9.26758H102.568ZM104.16 4.43359V5.30273L102.568 5.42969V4.43359H104.16Z" fill="#5222D0"/>
</svg>
