<svg width="138" height="16" viewBox="0 0 138 16" fill="none" xmlns="http://www.w3.org/2000/svg">
<path d="M6.43555 0.78125C7.91341 0.78125 9.0625 1.09375 9.88281 1.71875C10.7096 2.33724 11.123 3.27148 11.123 4.52148C11.123 5.25065 10.9147 5.88542 10.498 6.42578C10.0879 6.96615 9.52799 7.34049 8.81836 7.54883C9.68424 7.70508 10.3874 8.11198 10.9277 8.76953C11.4681 9.42708 11.7383 10.1855 11.7383 11.0449C11.7383 12.3145 11.3249 13.291 10.498 13.9746C9.67773 14.6582 8.57747 15 7.19727 15H0.693359V14.1406L2.28516 14.0137V1.77734L0.693359 1.65039V0.78125H2.28516H6.43555ZM3.44727 8.14453V14.0137H7.19727C8.24544 14.0137 9.06901 13.7565 9.66797 13.2422C10.2669 12.7214 10.5664 11.9954 10.5664 11.0645C10.5664 10.2116 10.293 9.51172 9.74609 8.96484C9.20573 8.41797 8.41797 8.14453 7.38281 8.14453H3.44727ZM3.44727 7.1582H6.71875C7.7474 7.1582 8.54167 6.93359 9.10156 6.48438C9.66797 6.02865 9.95117 5.36133 9.95117 4.48242C9.95117 3.58398 9.65169 2.91016 9.05273 2.46094C8.45378 2.00521 7.58138 1.77734 6.43555 1.77734H3.44727V7.1582ZM13.8574 9.56055C13.8574 8.00456 14.2839 6.72852 15.1367 5.73242C15.9896 4.73633 17.1191 4.23828 18.5254 4.23828C19.9382 4.23828 21.071 4.73633 21.9238 5.73242C22.7767 6.72852 23.2031 8.00456 23.2031 9.56055V9.88281C23.2031 11.4453 22.7767 12.7246 21.9238 13.7207C21.0775 14.7103 19.9512 15.2051 18.5449 15.2051C17.1257 15.2051 15.9896 14.7103 15.1367 13.7207C14.2839 12.7246 13.8574 11.4453 13.8574 9.88281V9.56055ZM15.0293 9.88281C15.0293 11.1068 15.3385 12.1354 15.957 12.9688C16.5755 13.8021 17.4382 14.2188 18.5449 14.2188C19.6322 14.2188 20.485 13.8021 21.1035 12.9688C21.722 12.1354 22.0312 11.1068 22.0312 9.88281V9.56055C22.0312 8.35612 21.7188 7.33398 21.0938 6.49414C20.4753 5.6543 19.6191 5.23438 18.5254 5.23438C17.4316 5.23438 16.5755 5.6543 15.957 6.49414C15.3385 7.33398 15.0293 8.35612 15.0293 9.56055V9.88281ZM29.082 9.10156C30.0065 9.10156 30.6771 8.94206 31.0938 8.62305C31.5104 8.29753 31.7188 7.83203 31.7188 7.22656C31.7188 6.64714 31.4974 6.17513 31.0547 5.81055C30.6185 5.43945 29.9479 5.25391 29.043 5.25391C28.2812 5.25391 27.6335 5.44596 27.0996 5.83008C26.5658 6.21419 26.2988 6.69922 26.2988 7.28516H25.2148L25.1953 7.22656C25.1562 6.36068 25.5176 5.65104 26.2793 5.09766C27.041 4.54427 27.9622 4.26758 29.043 4.26758C30.2474 4.26758 31.1882 4.52474 31.8652 5.03906C32.5488 5.55339 32.8906 6.28906 32.8906 7.24609C32.8906 7.76042 32.7311 8.22266 32.4121 8.63281C32.0931 9.04297 31.6406 9.35872 31.0547 9.58008C31.7188 9.77539 32.2201 10.0846 32.5586 10.5078C32.9036 10.931 33.0762 11.4616 33.0762 12.0996C33.0762 13.0632 32.7051 13.8184 31.9629 14.3652C31.2272 14.9056 30.2539 15.1758 29.043 15.1758C27.9557 15.1758 27.0052 14.9056 26.1914 14.3652C25.3841 13.8184 24.9967 13.0404 25.0293 12.0312L25.0488 11.9727H26.123C26.123 12.5977 26.3997 13.125 26.9531 13.5547C27.5065 13.9844 28.2031 14.1992 29.043 14.1992C29.9609 14.1992 30.6673 14.0104 31.1621 13.6328C31.6569 13.2552 31.9043 12.7507 31.9043 12.1191C31.9043 11.4225 31.6732 10.9147 31.2109 10.5957C30.7487 10.2767 30.0391 10.1172 29.082 10.1172H27.4805V9.10156H29.082ZM42.5195 13.3594H42.5781L46.748 4.43359H48.1934H49.7852V5.30273L48.1934 5.42969V14.0137L49.7852 14.1406V15H45.4297V14.1406L47.0215 14.0137V6.49414L46.9629 6.47461L42.9688 15H42.1387L38.0566 6.25977L37.998 6.26953V14.0137L39.5898 14.1406V15H35.2441V14.1406L36.8359 14.0137V5.42969L35.2441 5.30273V4.43359H36.8359H38.3594L42.5195 13.3594ZM51.8652 9.56055C51.8652 8.00456 52.2917 6.72852 53.1445 5.73242C53.9974 4.73633 55.127 4.23828 56.5332 4.23828C57.946 4.23828 59.0788 4.73633 59.9316 5.73242C60.7845 6.72852 61.2109 8.00456 61.2109 9.56055V9.88281C61.2109 11.4453 60.7845 12.7246 59.9316 13.7207C59.0853 14.7103 57.959 15.2051 56.5527 15.2051C55.1335 15.2051 53.9974 14.7103 53.1445 13.7207C52.2917 12.7246 51.8652 11.4453 51.8652 9.88281V9.56055ZM53.0371 9.88281C53.0371 11.1068 53.3464 12.1354 53.9648 12.9688C54.5833 13.8021 55.446 14.2188 56.5527 14.2188C57.64 14.2188 58.4928 13.8021 59.1113 12.9688C59.7298 12.1354 60.0391 11.1068 60.0391 9.88281V9.56055C60.0391 8.35612 59.7266 7.33398 59.1016 6.49414C58.4831 5.6543 57.627 5.23438 56.5332 5.23438C55.4395 5.23438 54.5833 5.6543 53.9648 6.49414C53.3464 7.33398 53.0371 8.35612 53.0371 9.56055V9.88281ZM68.418 14.1406L70.0098 14.0137V10.1562H68.584L64.707 15H62.5195V14.1406L64.0039 14.0332L67.6465 9.51172L65.3516 6.42578C65.0391 6.02214 64.7689 5.74544 64.541 5.5957C64.3132 5.43945 64.0527 5.36133 63.7598 5.36133C63.623 5.36133 63.5026 5.37435 63.3984 5.40039C63.3008 5.42643 63.1966 5.45898 63.0859 5.49805L62.832 4.63867C63.0078 4.52799 63.1803 4.44336 63.3496 4.38477C63.5254 4.31966 63.7207 4.28711 63.9355 4.28711C64.3587 4.28711 64.7493 4.4043 65.1074 4.63867C65.472 4.87305 65.8561 5.27018 66.2598 5.83008L68.6719 9.12109H70.0098V5.42969L68.418 5.30273V4.43359H72.7734V5.30273L71.1816 5.42969V9.12109H72.6074L75.0098 5.83008C75.4134 5.27018 75.7943 4.87305 76.1523 4.63867C76.5104 4.4043 76.9043 4.28711 77.334 4.28711C77.5423 4.28711 77.7344 4.31966 77.9102 4.38477C78.0859 4.44336 78.2617 4.52799 78.4375 4.63867L78.1836 5.49805C78.0794 5.45898 77.972 5.42643 77.8613 5.40039C77.7572 5.37435 77.6432 5.36133 77.5195 5.36133C77.2135 5.36133 76.9466 5.43945 76.7188 5.5957C76.4909 5.74544 76.224 6.02214 75.918 6.42578L73.5938 9.55078L77.1973 14.0332L78.6816 14.1406V15H76.4941L72.6172 10.1562H71.1816V14.0137L72.7734 14.1406V15H68.418V14.1406ZM80.166 5.30273V4.43359H84.5117V5.30273L82.9199 5.42969V9.16992H88.6133V5.42969L87.0215 5.30273V4.43359H88.6133H89.7852H91.377V5.30273L89.7852 5.42969V14.0137L91.377 14.1406V15H87.0215V14.1406L88.6133 14.0137V10.1562H82.9199V14.0137L84.5117 14.1406V15H80.166V14.1406L81.7578 14.0137V5.42969L80.166 5.30273ZM93.5645 9.56055C93.5645 8.00456 93.9909 6.72852 94.8438 5.73242C95.6966 4.73633 96.8262 4.23828 98.2324 4.23828C99.6452 4.23828 100.778 4.73633 101.631 5.73242C102.484 6.72852 102.91 8.00456 102.91 9.56055V9.88281C102.91 11.4453 102.484 12.7246 101.631 13.7207C100.785 14.7103 99.6582 15.2051 98.252 15.2051C96.8327 15.2051 95.6966 14.7103 94.8438 13.7207C93.9909 12.7246 93.5645 11.4453 93.5645 9.88281V9.56055ZM94.7363 9.88281C94.7363 11.1068 95.0456 12.1354 95.6641 12.9688C96.2826 13.8021 97.1452 14.2188 98.252 14.2188C99.3392 14.2188 100.192 13.8021 100.811 12.9688C101.429 12.1354 101.738 11.1068 101.738 9.88281V9.56055C101.738 8.35612 101.426 7.33398 100.801 6.49414C100.182 5.6543 99.3262 5.23438 98.2324 5.23438C97.1387 5.23438 96.2826 5.6543 95.6641 6.49414C95.0456 7.33398 94.7363 8.35612 94.7363 9.56055V9.88281ZM109.326 14.2188C110.101 14.2188 110.785 13.9974 111.377 13.5547C111.969 13.112 112.266 12.4967 112.266 11.709H113.301L113.32 11.7676C113.353 12.7441 112.962 13.5612 112.148 14.2188C111.341 14.8763 110.4 15.2051 109.326 15.2051C107.894 15.2051 106.784 14.7135 105.996 13.7305C105.208 12.7409 104.814 11.4714 104.814 9.92188V9.51172C104.814 7.97526 105.208 6.71224 105.996 5.72266C106.784 4.73307 107.891 4.23828 109.316 4.23828C110.13 4.23828 110.876 4.39128 111.553 4.69727C112.23 5.00326 112.78 5.41992 113.203 5.94727L113.252 8.25195H112.256L112.07 6.37695C111.758 6.02539 111.367 5.7487 110.898 5.54688C110.436 5.33854 109.909 5.23438 109.316 5.23438C108.184 5.23438 107.344 5.64128 106.797 6.45508C106.257 7.26237 105.986 8.28125 105.986 9.51172V9.92188C105.986 11.1719 106.257 12.2005 106.797 13.0078C107.337 13.8151 108.18 14.2188 109.326 14.2188ZM124.619 4.43359V7.43164H123.584L123.496 5.42969H120.508V14.0137L122.1 14.1406V15H117.754V14.1406L119.346 14.0137V5.42969H116.494L116.416 7.43164H115.371V4.43359H124.619ZM130.879 4.43359V5.30273L129.287 5.42969V13.0469L129.346 13.0566L134.99 4.43359H136.162H137.754V5.30273L136.162 5.42969V14.0137L137.754 14.1406V15H133.398V14.1406L134.99 14.0137V6.37695L134.932 6.35742L129.287 15H126.533V14.1406L128.125 14.0137V5.42969L126.533 5.30273V4.43359H129.287H130.879Z" fill="#5222D0"/>
</svg>
