<svg width="150" height="19" viewBox="0 0 150 19" fill="none" xmlns="http://www.w3.org/2000/svg">
<path d="M13.15 5.87503C13.15 2.85003 10.725 0.500025 7.69998 0.500025H0.224976V18H8.42498C12 18 13.85 15.525 13.875 12.475C13.875 10.925 13.2 9.62503 11.775 8.90003C12.625 8.20003 13.15 6.92503 13.15 5.87503ZM8.09998 11.05C9.89998 11.05 9.92498 14.025 8.12498 14.025H4.54998V11.05H8.09998ZM7.34998 4.50003C9.14998 4.50003 9.14998 7.32503 7.37498 7.32503H4.54998V4.50003H7.34998Z" fill="black"/>
<path d="M27.8136 9.40003V18C29.3636 18 30.9136 18 32.4386 18V0.425025H30.8136L21.9636 9.07503V0.500025C20.4386 0.500025 18.9136 0.500025 17.3886 0.500025V18.025H18.9886L27.8136 9.40003Z" fill="black"/>
<path d="M48.0443 18H52.4193V17.35L44.5193 0.275024H42.5943L34.7193 17.35V18H39.0943L40.1193 15.8H47.0193L48.0443 18ZM45.5693 11.975H41.5693L43.5443 7.37503L45.5693 11.975Z" fill="black"/>
<path d="M59.1922 18V13.525H62.4172C70.7922 13.525 70.7922 0.525024 62.4172 0.500025C59.8422 0.500025 57.2422 0.500025 54.7172 0.500025C54.7172 6.35003 54.7172 12.175 54.7172 18C56.1922 18 57.6922 18 59.1922 18ZM62.3922 9.50003H59.1922C59.1922 8.07503 59.1922 5.92503 59.1922 4.50003C60.2172 4.50003 61.3422 4.47503 62.3922 4.50003C64.9922 4.52502 64.8422 9.50003 62.3922 9.50003Z" fill="black"/>
<path d="M73.1506 18H77.9756L86.2756 1.17502V0.500025H81.4256L78.4256 6.95002H78.3006L75.0006 0.500025H70.0006V1.17502L75.9006 11.875L73.1506 17.525V18Z" fill="black"/>
<path d="M88.7265 18H110.902V0.500025H106.327V13.875H102.102V0.500025H97.5265V13.875H93.3015V0.500025H88.7265V18Z" fill="black"/>
<path d="M119.937 18V11.325C120.512 11.325 121.062 11.325 121.662 11.225L125.512 18H130.487V17.3L125.737 9.60003C129.212 7.37503 129.112 4.07502 129.112 0.500025C127.562 0.500025 126.037 0.500025 124.512 0.500025C124.512 3.77503 124.737 7.12502 120.262 7.12502H119.937V0.500025C118.387 0.500025 116.887 0.500025 115.387 0.500025V18C116.887 18 118.387 18 119.937 18Z" fill="black"/>
<path d="M145.237 18H149.612V17.35L141.712 0.275024H139.787L131.912 17.35V18H136.287L137.312 15.8H144.212L145.237 18ZM142.762 11.975H138.762L140.737 7.37503L142.762 11.975Z" fill="black"/>
</svg>
